<svg width="139" height="58" viewBox="0 0 139 58" fill="none" xmlns="http://www.w3.org/2000/svg">
<g clip-path="url(#clip0_87_23)">
<path d="M20.1518 0V7.63158H11.3648V58H0L5.78326 0H20.1518Z" fill="#010101"/>
<path d="M31.965 8.73145H12.5305V58.0225H31.965V8.73145Z" fill="#010101"/>
<path d="M55.2772 0V7.63158H46.4903V58H35.1255L40.9087 0H55.2772Z" fill="#010101"/>
<path d="M67.0902 8.73145H47.6558V58.0225H67.0902V8.73145Z" fill="#010101"/>
<path d="M91.7028 0V7.63158H82.9158V58H71.551L77.3343 0H91.7028Z" fill="#010101"/>
<path d="M103.516 8.73145H84.0815V58.0225H103.516V8.73145Z" fill="#010101"/>
<path d="M127.187 0V7.63158H118.4V58H107.035L112.818 0H127.187Z" fill="#010101"/>
<path d="M139 8.73145H119.566V58.0225H139V8.73145Z" fill="#010101"/>
</g>
<defs>
<clipPath id="clip0_87_23">
<rect width="139" height="58" fill="white"/>
</clipPath>
</defs>
</svg>
