<svg width="150" height="109" viewBox="0 0 150 109" fill="none" xmlns="http://www.w3.org/2000/svg">
<g clip-path="url(#clip0_13_83)">
<path d="M47.7689 82.1442L17.7619 84.7125L17.8252 21.4865L47.7924 5.24944L47.7713 82.1442H47.7689ZM107.694 85.8992L113.515 85.0673L113.52 37.5215L88.4902 45.6189L88.5278 80.2408L106.869 84.0875L107.696 85.8968L107.694 85.8992ZM145.281 87.6685L145.267 56.4233C143.745 55.8382 141.45 54.816 140.153 54.7056L123.186 58.1269L123.235 89.7293L139.34 87.7202L145.283 87.6685H145.281ZM16.5779 87.0318L16.4677 20.2176L44.9907 4.14504L33.9248 0L14.285 11.8594L14.3343 94.6592L23.3371 96.5437L23.3465 86.7968L16.5779 87.0318ZM43.4949 102.127L10.6628 97.0019C7.14374 96.4521 3.54495 96.8915 0.00244141 97.9043L42.6064 109L70.4119 103.955C74.1561 103.276 77.4829 102.583 81.1497 101.175C77.5556 99.8851 74.3999 98.3437 70.8738 98.776L43.4973 102.127H43.4949ZM103.054 38.6941C103.211 37.2372 103.221 35.7615 103.155 34.2506L98.8365 32.5682L82.2539 37.7424L82.2891 79.2633C83.8763 79.4114 85.0368 79.362 86.4318 79.0847L86.4201 44.1033L103.054 38.6917V38.6941ZM105.382 85.0955C92.5204 82.734 79.3749 79.8508 66.6772 82.6259L66.2786 86.4796C65.3127 86.442 63.756 86.1083 63.7536 86.6229L63.7395 88.9844L105.375 90.1899L105.385 85.0932L105.382 85.0955ZM47.7197 99.7606L47.6728 84.6561L31.0739 85.9861L31.034 98.0664L43.9193 100.341C44.8899 100.513 46.5732 100.017 47.7197 99.7606ZM118.84 98.8066L150 93.5501L132.653 93.1929C124.302 90.7867 123.482 91.0781 114.842 91.3906L114.427 94.8895L83.6489 96.5273C83.112 96.5555 82.6056 97.5729 82.6666 97.8878C82.7275 98.2027 83.4824 98.6891 84.0873 98.6914L118.84 98.8089V98.8066ZM53.3793 5.69121C52.4884 4.90167 51.6725 4.46696 50.6151 4.22728L50.6456 81.9397C51.5271 82.5742 52.9221 82.9102 53.3746 81.9304L53.3793 5.68886V5.69121ZM57.5712 7.99166C56.6803 7.18333 55.8293 6.72982 54.7531 6.57708L54.7485 82.3839C55.6886 82.976 57.0672 83.2439 57.5642 82.4168L57.5712 7.99166ZM61.8077 10.3156C61.0035 9.52842 60.0681 9.06081 58.9732 8.94333L58.9803 82.8891C60.0376 83.4131 61.2286 83.5846 61.8218 82.8703L61.8077 10.3156ZM65.8027 12.6959C65.4393 11.937 64.1264 11.2367 63.2378 11.2015L63.2191 83.359C64.1358 83.7467 64.9727 83.8102 65.791 83.4695L65.8027 12.6959ZM118.054 40.2614C118.054 39.6998 117.66 38.7481 117.386 38.4262C117.112 38.1043 115.745 38.0244 115.567 38.485L115.597 84.3483C115.597 85.1472 116.828 85.7605 117.142 85.7394C117.456 85.7182 117.674 85.4668 118.078 84.6655L118.054 40.2614ZM119.004 39.7938V86.4232H121.386V39.7938H119.004ZM81.5904 98.6891L81.56 92.0815L63.6387 90.963L63.6083 96.6025L75.2791 95.1385L75.4854 98.6867L81.5928 98.6914L81.5904 98.6891ZM54.9126 85.2389L50.0525 84.8793L50.0642 99.5139L54.9524 98.6397L54.9126 85.2412V85.2389ZM61.4748 85.8545L56.7694 85.3775V98.1674C58.2933 98.1533 60.1877 97.869 61.5287 97.2181L61.4748 85.8545ZM29.5546 86.1506L24.9993 86.6299L24.9899 96.8374C26.6592 97.2557 28.2675 97.5283 29.5757 97.4719L29.5546 86.1529V86.1506ZM123.149 51.0141L123.271 56.1625L131.643 54.2991C133.11 50.7885 125.282 49.1671 123.149 51.0141ZM113.194 87.2785L108.043 87.6075L108.067 93.6958L113.288 93.4585L113.192 87.2785H113.194ZM142.988 89.4239C137.52 89.4567 132.855 89.4238 127.268 90.1922C132.552 91.8136 137.577 91.6985 143.107 91.7408L142.988 89.4239ZM121.322 87.9764L115.091 87.4547L115.142 90.1664L121.449 90.063C121.583 89.7011 121.531 88.2866 121.322 87.974V87.9764ZM82.765 92.5279L82.8189 95.3077L88.1104 95.2043L88.0565 92.4245L82.765 92.5279ZM105.589 91.8465L100.224 92.0439L100.508 94.4501L105.64 94.1375L105.589 91.8465ZM94.1334 92.3047L89.0342 92.441L89.1584 95.0516L94.3069 94.8472L94.1334 92.3047ZM95.3338 92.1849L95.4159 94.7837L99.364 94.6592L99.2819 92.0603L95.3338 92.1849Z" fill="black"/>
</g>
<defs>
<clipPath id="clip0_13_83">
<rect width="150" height="109" fill="white"/>
</clipPath>
</defs>
</svg>
