<svg width="25" height="19" viewBox="0 0 25 19" fill="none" xmlns="http://www.w3.org/2000/svg">
<g clip-path="url(#clip0_85_74)">
<path d="M20.58 8.57H20.61V8.08C22.61 7.96 24.21 6.31 24.21 4.29C24.21 2.27 22.61 0.61 20.61 0.49V0H0.48V8.57H0.51C0.71 11.55 2.97 14.09 6.18 15.33H0V16.93H1.84V18.18H19.25V16.93H21.09V15.33H14.91C18.12 14.1 20.37 11.56 20.58 8.57ZM22.6 4.29C22.6 5.44 21.72 6.37 20.6 6.48V2.09C21.72 2.2 22.6 3.14 22.6 4.28V4.29Z" fill="#231F20"/>
</g>
<defs>
<clipPath id="clip0_85_74">
<rect width="24.2" height="18.18" fill="white"/>
</clipPath>
</defs>
</svg>
