<svg width="124" height="82" viewBox="0 0 124 82" fill="none" xmlns="http://www.w3.org/2000/svg">
<path d="M2.7055 76.1681L0 82H124L121.331 76.1681H118.834V35.9063L120.756 29.5864L118.736 22.9615L111.721 0L104.768 22.8273V23.5105H89.5386L86.7963 28.8421H79.9897L75.8397 16.2756L73.9666 22.0464L70.8449 15.9949V11.5661H68.7025V15.5313H55.1138V11.5661H52.9715V15.5313L49.7518 21.8756L47.9767 16.5196L43.9001 28.8421H36.5426L33.8004 23.5105H18.5712V22.8273L11.6055 0L4.57854 22.9615L2.55859 29.5864L4.57854 36.2113V76.1681H2.7055ZM103.164 41.5551H106.641V47.4114H103.164V41.5551ZM103.164 52.5844H106.641V58.4407H103.164V52.5844ZM103.164 63.8334H106.641V69.6896H103.164V63.8334ZM95.8677 41.5551H99.3445V47.4114H95.8677V41.5551ZM95.8677 52.5844H99.3445V58.4407H95.8677V52.5844ZM95.8677 63.8334H99.3445V69.6896H95.8677V63.8334ZM88.5714 41.5551H92.0482V47.4114H88.5714V41.5551ZM88.5714 52.5844H92.0482V58.4407H88.5714V52.5844ZM88.5714 63.8334H92.0482V69.6896H88.5714V63.8334ZM56.032 69.6896H52.5552V63.8334H56.032V69.6896ZM63.7323 58.4407H60.2677V52.5844H63.7323V58.4407ZM68.4699 34.4422L70.6245 31.4409L72.7669 34.4422V43.4096H68.4699V34.4422ZM67.564 52.5844H71.0285V58.4407H67.564V52.5844ZM67.1478 63.8334H70.6245V69.6896H67.1478V63.8334ZM59.8515 34.4422L62.0061 31.4409L64.1485 34.4422V43.4096H59.8515V34.4422ZM59.8515 63.8334H63.3283V69.6896H59.8515V63.8334ZM56.436 58.4407H52.9715V52.5844H56.436V58.4407ZM50.8169 34.4422L52.9715 31.4409L55.1138 34.4422V43.4096H50.8169V34.4422ZM31.2418 41.5551H34.7185V47.4114H31.2418V41.5551ZM31.2418 52.5844H34.7185V58.4407H31.2418V52.5844ZM31.2418 63.8334H34.7185V69.6896H31.2418V63.8334ZM23.9455 41.5551H27.4223V47.4114H23.9455V41.5551ZM23.9455 52.5844H27.4223V58.4407H23.9455V52.5844ZM23.9455 63.8334H27.4223V69.6896H23.9455V63.8334ZM16.6492 41.5551H20.126V47.4114H16.6492V41.5551ZM16.6492 52.5844H20.126V58.4407H16.6492V52.5844ZM16.6492 63.8334H20.126V69.6896H16.6492V63.8334Z" fill="#010101"/>
</svg>
