<svg width="150" height="92" viewBox="0 0 150 92" fill="none" xmlns="http://www.w3.org/2000/svg">
<g clip-path="url(#clip0_13_81)">
<path d="M148.423 82.7482L148.502 41.2614C148.502 39.3826 150.489 37.5476 149.884 35.5682C149.269 33.5472 147.585 31.5219 147.487 29.4484L147.159 22.5653C147.12 21.756 146.488 20.3234 146.26 19.6038C146.116 19.1467 144.369 19.1445 144.222 19.5951L143.612 21.5001C143.536 21.7342 143.31 22.2153 143.216 22.41C143.153 22.5412 142.582 21.9113 142.488 21.6664L137.129 7.89359C136.105 5.26895 137.011 2.51746 135.515 0.0656159C134.695 2.58964 135.307 5.24927 134.452 7.39272L128.369 22.6069C127.794 21.7407 127.494 20.8155 127.286 19.9757C127.133 19.3567 125.237 18.9717 125.012 19.4595C124.769 20.3212 124.052 21.8129 124.024 22.5981L123.779 29.2909C123.75 30.0739 123.064 32.0052 122.342 32.014L117.232 32.0687L116.921 29.1531C116.886 28.8119 116.46 28.0049 116.16 28.0989C114.269 28.7004 115.959 30.9794 113.525 33.6216C110.33 37.0905 108.424 39.6035 104.166 38.4968C101.632 33.4072 99.434 27.808 97.982 22.5981C97.9011 22.305 97.4025 21.6161 97.2823 21.7757C97.162 21.9354 96.7815 22.4494 96.7312 22.6353L94.5948 30.8613C94.0022 26.1217 94.3499 21.4717 94.2908 16.9092C94.1071 16.0562 91.1988 16.0059 90.9605 16.8523L90.7309 25.1353C88.507 22.3531 86.6701 19.711 84.8879 16.6424L84.6277 12.5501C84.6124 12.3052 83.6481 11.7627 83.6043 12.0055L83.3726 13.2828C83.2785 13.8078 83.1386 15.575 82.5853 15.5772L66.9 15.61L66.6617 12.876C66.6398 12.6289 66.3184 12.1083 66.1959 11.9115C66.0713 11.7168 65.3343 12.5173 65.3234 12.7492L65.1244 17.0229L59.2859 25.2424L58.9579 16.837C58.6561 16.0234 55.973 16.1109 55.6406 16.8961L55.4285 30.9401L52.6492 21.4214C50.4647 27.6221 48.3938 33.1535 45.6692 38.7177C44.32 38.6499 42.3935 38.838 41.6413 38.3984C39.1309 36.933 36.9661 34.4921 35.4157 32.1365C34.5563 30.8329 35.5578 30.3626 34.3486 28.042C34.2349 27.8233 33.3558 28.3329 33.3142 28.6085L32.8113 31.9943L27.1083 31.9746C25.0463 28.8119 26.5354 25.0259 25.7329 22.3356L24.8866 19.4967C24.7511 19.2779 22.958 19.3348 22.8027 19.8991C22.5797 20.7149 22.2604 21.7407 21.6131 22.69L15.5406 7.26368L14.2373 0C12.8553 2.38186 13.7934 5.12241 12.8881 7.39709L6.85498 22.5412L6.03933 19.7044C5.67415 19.5645 4.08878 19.3151 3.6908 19.3698L2.76363 22.55L2.34597 29.6956L0.12645 35.6382C-0.496764 37.307 1.37725 39.188 1.37944 40.8437L1.44067 82.7941L0.445711 85.0797L0.452271 91.9956L64.1819 92L64.3131 85.8321C64.3328 84.8173 65.7564 83.9118 66.6507 83.9905C67.6807 84.0824 68.7565 85.1213 68.7631 86.1974L68.7959 91.9694L72.7364 91.9081L72.7057 86.322C72.6992 84.8173 73.9456 83.798 75.3976 84.0014C76.609 84.172 77.2519 85.3006 77.2541 86.6851L77.2585 91.9759L80.8556 91.9672L80.8688 86.6764C80.8709 85.3116 81.6713 84.0933 82.7887 83.9664C84.3041 83.7915 85.3472 84.7691 85.3756 86.2608L85.4849 91.9956L149.538 91.9912L149.532 85.1125C149.532 84.5614 148.674 83.2556 148.423 82.7482ZM13.7213 51.4188C14.187 51.5347 14.9283 52.438 14.9218 52.9564L14.8693 57.2717L12.1206 57.0486L12.2365 52.3002C12.2452 51.8912 13.3342 51.3225 13.7213 51.4188ZM4.58516 44.0436L4.57204 40.544L5.95624 40.5375L5.97154 44.037L4.58516 44.0436ZM8.65464 88.4699H6.07869V85.539H8.65464V88.4699ZM8.68526 80.9437L6.09837 80.8519L6.0284 76.6C6.02184 76.1363 6.7522 75.2658 7.19829 75.1936C7.76028 75.1039 8.76398 76.0029 8.75523 76.5868L8.68526 80.9437ZM6.11149 69.9728L6.00216 65.6312C5.99122 65.185 6.42419 64.297 6.78937 64.052C7.2289 63.7567 8.73555 64.262 8.74211 64.8788L8.80115 69.8087L6.11149 69.9728ZM8.76179 57.1645L6.13992 57.2105L5.98685 52.9826C5.96717 52.4686 6.69535 51.5216 7.17642 51.4122C7.6575 51.3029 8.82302 52.0706 8.81865 52.5714L8.76179 57.1645ZM7.74716 44.0654L7.71873 40.52L9.21226 40.5069L9.24068 44.0545L7.74716 44.0654ZM11.0557 40.5265H12.606V44.0479H11.0557V40.5265ZM12.09 65.6093C12.079 65.0516 12.7066 63.9711 13.238 63.9186C13.8065 63.8639 14.8737 64.6382 14.8671 65.174L14.8277 70.0406L12.1796 69.9465L12.09 65.6093ZM14.7949 88.483H12.1928V85.4756H14.7949V88.483ZM14.9174 80.7513L12.2037 80.9109L12.1862 76.2938C12.184 75.7513 13.2905 75.0514 13.7409 75.1542C14.1936 75.257 14.924 76.11 14.924 76.6284L14.9174 80.7513ZM15.4816 44.0501C13.7409 43.9867 14.0362 40.8284 15.3132 40.3734C16.1791 40.8306 16.2819 43.4618 15.4816 44.0501ZM17.7426 40.4369L19.2799 40.4325L19.2886 44.1004L17.7536 44.1048L17.7426 40.4369ZM18.7442 88.3561C18.1778 87.9493 18.2762 86.1143 18.8185 85.6746C19.1859 85.3794 20.7472 85.3947 20.7975 85.8627L21.014 87.9078C21.0708 88.4655 19.2209 88.6995 18.7442 88.3561ZM18.4315 80.8497L18.4249 76.3003C18.4249 75.7885 19.4417 75.0974 19.8878 75.1717C20.3339 75.2483 21.0774 76.1188 21.0796 76.5846L21.0927 80.8169L18.4315 80.8497ZM21.0971 69.8087L18.368 70.0056L18.2762 65.5765C18.2653 65.0363 18.895 64.0411 19.4089 63.9448C19.9709 63.842 21.1014 64.6447 21.1014 65.2309L21.0971 69.8087ZM21.0971 57.2236L18.2981 57.1864L18.2849 52.9761C18.2849 52.4621 19.0262 51.5369 19.5095 51.4538C20.1458 51.3444 21.1342 52.3002 21.1299 52.8755L21.0971 57.2236ZM22.4966 44.096L21.0468 44.0851L21.0752 40.4434L22.525 40.4544L22.4966 44.096ZM29.3235 88.3036C28.7899 87.9012 28.7943 86.1208 29.3279 85.714C29.7062 85.4253 31.3112 85.2984 31.3528 85.7731L31.5386 87.9012C31.5889 88.4633 29.8352 88.6886 29.3235 88.3036ZM31.613 80.8956L28.9321 80.9065L28.7812 76.6306C28.7615 76.0925 29.4984 75.1914 29.9533 75.093C30.4868 74.9792 31.6589 75.7601 31.6545 76.355L31.613 80.8956ZM28.8599 70.0056L28.814 65.3009C28.8074 64.7563 29.7761 63.9033 30.2791 63.9033C30.782 63.9033 31.683 64.7388 31.683 65.314L31.6895 70.0034H28.8599V70.0056ZM28.5275 58.9777L28.4357 52.9782C28.4247 52.274 29.3213 51.2329 29.9226 51.1257C30.7252 50.9835 32.0656 51.8956 32.0678 52.6414L32.0809 58.9274L28.5275 58.9777ZM35.2889 88.3693C34.6919 88.1112 34.8143 86.3155 35.2254 85.7993C35.5075 85.4428 36.9529 85.2722 37.1629 85.6746C37.4143 86.1602 37.5106 87.2057 37.5412 87.9121C37.563 88.4524 35.9186 88.6427 35.2889 88.3693ZM34.8493 65.5612C34.8428 65.0209 35.4769 63.993 35.9952 63.9273C36.5987 63.8486 37.5849 64.5988 37.5827 65.1434L37.5674 69.9924L34.9105 69.9465L34.8493 65.5612ZM34.8996 80.8781L34.9587 75.981C34.9608 75.6966 35.7262 75.2045 36.0061 75.1498C36.3778 75.0755 37.4493 75.5917 37.4603 75.9832L37.5893 80.8803H34.8996V80.8781ZM34.401 58.9821L34.3595 52.8951C34.3551 52.193 35.3042 51.1344 35.9952 51.1038C36.9136 51.0623 37.9304 52.0159 37.9304 52.9389L37.9348 58.9602L34.401 58.9821ZM43.2572 88.1987C43.1282 88.7761 41.1471 88.6361 41.0027 88.0674C40.854 87.4813 40.8825 86.1864 41.1493 85.7512C41.4051 85.3334 43.1085 85.2984 43.231 85.7709C43.3797 86.3395 43.3906 87.5972 43.2572 88.1987ZM40.8387 80.8125L40.8059 76.3025C40.8016 75.8104 41.709 75.0777 42.1486 75.0689C42.5881 75.0602 43.5043 75.8016 43.5065 76.3025L43.5197 80.8475L40.8387 80.8125ZM40.7338 69.9224L40.889 64.5944C40.9109 63.818 43.231 63.9514 43.4628 64.566L43.5699 69.9465L40.7338 69.9224ZM40.2549 59.0018L40.1412 52.9192C40.1302 52.2499 41.0705 51.1804 41.7003 51.1082C42.6581 50.9966 43.8017 51.9284 43.8039 52.9258L43.8127 58.9034L40.2549 59.0018ZM53.0341 69.0126L50.5346 68.9929L50.5106 65.2506C50.5062 64.7716 51.3131 63.9099 51.7592 63.9142C52.2031 63.9186 52.9969 64.765 53.0013 65.2593L53.0341 69.0126ZM51.6236 51.6353C52.7891 51.4363 53.0319 53.4069 52.9335 54.483L52.7367 56.6287C52.6951 57.0858 51.2978 56.9655 50.902 56.7249C50.3816 56.4078 49.9836 51.9153 51.6236 51.6353ZM52.612 79.2902C52.3059 79.6883 50.6899 79.3536 50.5827 78.879C50.3466 77.8467 50.4822 75.6617 50.878 74.789C51.0288 74.4543 52.3627 74.3625 52.5333 74.6884C53.1587 75.8804 53.2265 78.4919 52.612 79.2902ZM57.5059 56.7118L57.3681 52.7048C57.3616 52.4686 57.8186 51.8759 58.0088 51.7359C58.1991 51.5959 58.9535 52.0049 58.9535 52.2412L58.971 56.5871C58.9732 56.9152 57.5168 57.0464 57.5059 56.7118ZM80.9519 34.3499L83.307 31.2988L85.7583 34.2471L85.8304 43.0003L80.9453 42.9215L80.9519 34.3499ZM60.7313 56.9524L60.6263 52.707C60.6198 52.3702 61.1183 51.7272 61.3895 51.6528C61.6606 51.5784 62.2117 52.3527 62.2183 52.6874L62.286 56.7687L60.7313 56.9524ZM64.8861 57.0639C64.628 57.0596 63.9895 56.6637 63.9873 56.4078L63.9545 52.6961C63.9523 52.4555 64.3284 51.8781 64.4793 51.69C64.6302 51.5041 65.5224 51.9787 65.5246 52.2193L65.5596 56.4471C65.5617 56.6177 65.0566 57.0683 64.8861 57.0639ZM66.6311 63.9317C67.1427 63.8836 68.1661 64.6732 68.1661 65.2156V69.6009L65.529 69.6469L65.4152 65.2943C65.4021 64.8416 66.2068 63.9733 66.6311 63.9317ZM67.8534 78.4088L66.139 78.5531C65.658 78.5925 65.3912 77.2583 65.4568 76.764L65.6908 74.9377C65.7476 74.4871 66.9372 74.4587 67.4686 74.5331C68.4985 74.6774 68.2711 78.3738 67.8534 78.4088ZM68.8681 57.0005H67.2936V51.7425H68.8681V57.0005ZM69.0277 43.1096H63.8867L63.9982 34.1771L66.8322 30.6754C70.3463 36.5852 68.6253 34.9536 69.0277 43.1096ZM72.3603 56.9918H70.7596L70.7705 51.7053H72.3734L72.3603 56.9918ZM76.2526 76.1931C76.1739 77.0308 76.1367 77.9976 75.8087 78.365C75.4807 78.7325 74.1009 78.7303 73.7816 78.3563C73.5258 78.0588 72.8326 74.6818 74.5492 74.4106C75.555 74.2531 76.3619 75.0405 76.2526 76.1931ZM74.582 63.9602C74.9887 63.8377 76.0952 64.4523 76.1389 64.8788C76.2329 65.7733 76.2154 68.0152 76.117 69.1613C75.953 69.7453 74.1665 69.7628 73.5148 69.5856L73.4558 65.36C73.4471 64.8875 74.1752 64.0826 74.582 63.9602ZM74.0681 52.6808C74.0659 52.508 74.4508 51.8825 74.547 51.7359C74.6913 51.5194 75.5878 51.9262 75.59 52.1865L75.6294 56.5521C75.6338 56.9349 74.1752 57.0202 74.1643 56.633L74.0681 52.6808ZM72.4893 42.9456L72.5374 33.9737L75.1286 31.0166L77.206 34.1093L77.3919 42.9893L72.4893 42.9456ZM79.0888 56.9983H77.4422V51.7359H79.0888V56.9983ZM80.8294 56.983L80.8578 51.7184L82.441 51.7272L82.4148 56.9896L80.8294 56.983ZM84.186 78.54H81.5532V74.509H84.186V78.54ZM81.5182 69.5616L81.4636 65.5656C81.457 65.0209 82.2508 63.9908 82.7712 63.9339C83.2916 63.8792 84.3281 64.6426 84.3325 65.2725L84.3631 69.6862L81.5182 69.5616ZM85.3756 57.0333C85.1657 57.2192 84.3391 56.7643 84.3347 56.4843L84.2647 52.6567C84.2582 52.344 84.7283 51.7075 85.0017 51.62C85.275 51.5347 85.8392 52.3396 85.8414 52.6283L85.872 55.9069C85.8742 56.1803 85.5177 56.9086 85.3756 57.0333ZM89.1433 57.0092H87.5776L87.5907 51.7709L89.1564 51.7753L89.1433 57.0092ZM92.4584 56.9808L90.7637 56.9721L90.7877 51.6659L92.4824 51.6747L92.4584 56.9808ZM97.057 52.6895C97.0592 52.3265 97.7808 51.6266 98.1307 51.5544C98.4806 51.4822 99.305 52.2893 99.3203 52.7136L99.4602 56.6615L97.0242 56.5915L97.057 52.6895ZM97.7677 63.9711C98.0717 63.783 99.2 64.2226 99.2175 64.5791L99.4318 69.1132L96.9914 69.1547L96.9127 65.3709C96.904 64.9488 97.4638 64.1592 97.7677 63.9711ZM96.9411 79.2771L97.1226 75.0317C97.1489 74.4128 99.0294 74.5331 99.3421 74.8852L99.5083 79.218L96.9411 79.2771ZM108.815 88.1637C108.745 88.7301 106.744 88.5967 106.571 88.0521C106.39 87.4791 106.41 86.0836 106.74 85.6549C107.028 85.2787 108.699 85.3028 108.776 85.7709C108.87 86.333 108.889 87.5622 108.815 88.1637ZM106.392 80.889L106.206 76.6021C106.184 76.1188 106.899 75.2023 107.348 75.093C107.868 74.9639 109.073 75.631 109.075 76.25L109.093 80.8453L106.392 80.889ZM106.324 69.9378L106.359 64.9116C106.362 64.4829 107.326 63.923 107.728 63.9295C108.133 63.9339 109.058 64.5835 109.064 65.0253L109.136 69.9268L106.324 69.9378ZM105.97 58.9974L105.891 53.0067C105.88 52.1821 106.897 51.1104 107.726 51.106C108.566 51.106 109.578 52.099 109.58 52.9301L109.593 58.923L105.97 58.9974ZM114.927 88.4655H112.351V85.4559H114.927V88.4655ZM112.318 80.8716L112.379 75.9963C112.384 75.6726 113.195 75.1345 113.495 75.0952C113.871 75.0449 114.903 75.4801 114.914 75.9176L115.058 80.8103L112.318 80.8716ZM115.062 70.0449L112.366 70.0537L112.268 65.6005C112.255 65.0406 112.904 64.028 113.429 63.947C114.037 63.8508 115.078 64.6141 115.076 65.1609L115.062 70.0449ZM115.432 58.9624L111.949 59.0127L111.868 52.9323C111.859 52.2215 112.769 51.1804 113.403 51.1301C114.43 51.0491 115.434 51.9896 115.434 52.9739V58.9624H115.432ZM120.888 88.4721L118.415 88.4633L118.426 85.4384L120.901 85.4472L120.888 88.4721ZM121.056 80.795L118.382 80.8716L118.235 76.5737C118.218 76.0882 119.09 75.1061 119.58 75.0755C120.171 75.0361 121.087 75.9241 121.082 76.5037L121.056 80.795ZM118.299 69.8656L118.264 65.2528C118.262 64.7803 119.119 63.9405 119.554 63.8727C119.989 63.8071 121.004 64.4063 121.017 64.9028L121.133 69.9246L118.299 69.8656ZM117.809 58.9515L117.697 52.9126C117.687 52.2762 118.581 51.2569 119.281 51.0645C119.958 50.8785 121.338 51.9087 121.338 52.6852L121.343 58.9821L117.809 58.9515ZM143.704 52.6589L143.732 57.0946L140.977 57.2236L140.99 52.5408C140.99 52.1187 141.97 51.4013 142.355 51.375C142.821 51.3444 143.7 52.134 143.704 52.6589ZM143.754 69.8765L140.984 69.8678V65.0713C140.984 64.7126 141.638 64.0805 141.952 63.9908C142.342 63.877 143.564 64.2707 143.577 64.6776L143.754 69.8765ZM127.078 40.5156H128.546L128.537 44.0632L127.07 44.0589L127.078 40.5156ZM129.626 51.4122C130.212 51.375 131.176 52.2915 131.172 52.8929L131.139 57.1711L128.441 57.2848L128.294 53.0132C128.275 52.4533 129.132 51.4428 129.626 51.4122ZM129.628 63.9186C130.144 63.877 131.124 64.6579 131.126 65.1872L131.15 69.8743L128.439 70.0078L128.34 65.3293C128.329 64.8175 129.195 63.9514 129.628 63.9186ZM128.384 76.2391C128.382 75.7623 129.578 75.0711 129.993 75.2198C130.411 75.3664 131.095 76.1406 131.102 76.6109L131.168 80.8125L128.397 80.8825L128.384 76.2391ZM128.92 88.3321C128.299 87.9952 128.445 86.0596 129.029 85.6637C129.42 85.3969 130.958 85.3641 131.01 85.8321L131.24 87.9078C131.301 88.4742 129.528 88.6623 128.92 88.3321ZM130.278 44.0457L130.264 40.5397L131.767 40.5331L131.78 44.0392L130.278 44.0457ZM133.75 40.5178L135.222 40.5222L135.213 44.0632L133.741 44.0589L133.75 40.5178ZM135.005 88.4983L134.981 85.4756L137.533 85.4559L137.557 88.4786L135.005 88.4983ZM134.953 80.7688L134.861 76.6306C134.85 76.1231 135.631 75.1498 136.096 75.1017C136.56 75.0558 137.572 75.8016 137.581 76.3178L137.647 80.8606L134.953 80.7688ZM134.953 69.9815L134.931 64.951C134.931 64.601 135.838 63.9252 136.175 63.9164C136.593 63.9055 137.577 64.4654 137.583 64.9291L137.664 69.894L134.953 69.9815ZM134.99 57.3242L134.911 52.6545C134.903 52.2259 135.788 51.3838 136.184 51.3947C136.658 51.41 137.618 52.1471 137.625 52.6305L137.686 57.0355L134.99 57.3242ZM138.572 44.0632L137.041 44.0567L137.054 40.5244L138.587 40.5287L138.572 44.0632ZM140.45 40.5419L141.928 40.5506L141.909 44.0589L140.428 44.0501L140.45 40.5419ZM140.907 76.6546C140.888 76.0969 141.745 75.0842 142.285 75.0777C142.829 75.0711 143.789 76.0225 143.778 76.565L143.68 80.7862L141.058 80.795L140.907 76.6546ZM143.798 88.4655H141.222V85.4734H143.798V88.4655ZM143.951 44.1004C143.227 43.5755 143.77 39.1552 144.537 40.3756C145.324 41.6245 145.773 44.352 143.951 44.1004Z" fill="black"/>
</g>
<defs>
<clipPath id="clip0_13_81">
<rect width="150" height="92" fill="white"/>
</clipPath>
</defs>
</svg>
