<svg width="109" height="63" viewBox="0 0 109 63" fill="none" xmlns="http://www.w3.org/2000/svg">
<g clip-path="url(#clip0_82_5)">
<path d="M108.827 14.2316L108.619 12.3953L0 31.2529L0.415898 33.0539C3.1539 45.4138 14.6604 52.865 33.7571 54.5954L36.1138 59.3981H26.6175V62.9295H47.5857L60.0973 62.9648L79.194 62.9295V59.3981H71.5345L75.2083 52.3706C89.2795 49.1923 100.647 41.0348 105.742 30.4407C108.376 24.9317 109.416 19.4934 108.792 14.1963L108.827 14.2316ZM49.5959 59.4334L47.1698 54.9132L59.0576 54.4188L57.5326 59.4334H49.5959Z" fill="#231F20"/>
<path d="M103.281 8.89902C98.7411 4.41415 86.9573 -2.578 59.0228 0.988702C40.5846 3.31942 14.9029 16.3856 5.96109 25.6378L2.18335 29.5576L105.742 11.3004L103.281 8.89902Z" fill="#231F20"/>
</g>
<defs>
<clipPath id="clip0_82_5">
<rect width="109" height="63" fill="white"/>
</clipPath>
</defs>
</svg>
