<svg width="150" height="80" viewBox="0 0 150 80" fill="none" xmlns="http://www.w3.org/2000/svg">
<g clip-path="url(#clip0_13_27)">
<path d="M80.8814 76.0331L84.693 63.2775L60.251 64.3096L66.338 76.0279H80.8866L80.8814 76.0331ZM39.6831 80C39.2144 78.8323 39.2196 77.5865 39.3186 76.0852L52.5237 75.9653L46.7386 63.8405C27.2226 62.2141 4.62908 55.5835 0 34.0548L53.6953 24.4999L149.771 7.27698C150.64 15.0335 148.927 22.6129 145.631 29.6866C137.826 46.4455 120.367 56.944 102.673 60.7806L94.9457 75.9236L109.911 76.0696C110.036 77.3102 110.02 78.4726 109.817 80H39.6831Z" fill="black"/>
<path d="M2.94727 30.5258C8.61776 25.6311 14.9027 22.5972 21.7604 19.8658C48.1134 9.37251 75.7993 2.85137 104.105 0.484783C116.446 -0.54734 134.863 -0.317979 145.772 5.06679L2.94727 30.5258Z" fill="black"/>
</g>
<defs>
<clipPath id="clip0_13_27">
<rect width="150" height="80" fill="white"/>
</clipPath>
</defs>
</svg>
