<svg width="140" height="63" viewBox="0 0 140 63" fill="none" xmlns="http://www.w3.org/2000/svg">
<g clip-path="url(#clip0_87_41)">
<path d="M122.21 2.85344V0H17.7256V2.85344H0V17.8901H140V2.85344H122.21Z" fill="#010101"/>
<path d="M0 20.9038L3.67403 33.9206H3.83518V63H136.068V33.9206H136.294L139.968 20.9038H0ZM22.302 59.6977H17.3711V33.2153H22.302V59.6977ZM41.6713 59.6977H36.7726V33.2153H41.6713V59.6977ZM61.0405 59.6977H56.1418V33.2153H61.0405V59.6977ZM80.4098 59.6977H75.511V33.2153H80.4098V59.6977ZM99.8112 59.6977H94.8803V33.2153H99.8112V59.6977ZM119.18 59.6977H114.25V33.2153H119.18V59.6977Z" fill="#010101"/>
</g>
<defs>
<clipPath id="clip0_87_41">
<rect width="140" height="63" fill="white"/>
</clipPath>
</defs>
</svg>
