<svg width="112" height="57" viewBox="0 0 112 57" fill="none" xmlns="http://www.w3.org/2000/svg">
<g clip-path="url(#clip0_43_15)">
<path d="M111.984 13.1406L77.3864 0L0 34.4264V41.3187L78.1087 15.334L112 24.3338L111.984 13.1406ZM2.89306 39.2697L2.58748 39.3556V34.8596L2.89306 34.7659V39.2697ZM6.04011 38.1379L6.02027 33.357L6.36156 33.2477L6.3814 38.0403L6.04011 38.1379ZM9.4967 36.9202L9.44908 31.8544L9.82609 31.7295L9.86975 36.8071L9.4967 36.9202ZM12.9533 35.7065L12.8819 30.348L13.2906 30.2075L13.3581 35.5777L12.9533 35.7065ZM16.4059 34.4888L16.3146 28.8454L16.7552 28.6893L16.8464 34.3483L16.4059 34.4888ZM19.8625 33.2711L19.7474 27.3428L20.2197 27.1711L20.3308 33.1189L19.8625 33.2711ZM23.3191 32.0535L23.1802 25.8364L23.6882 25.649L23.8191 31.8857L23.3191 32.0535ZM26.7757 30.8358L26.613 24.3338L27.1527 24.1308L27.3075 30.6563L26.7757 30.8358ZM30.2283 29.6181L30.0458 22.8312L30.6172 22.6127L30.7958 29.4269L30.2283 29.6181ZM33.6849 28.4005L33.4786 21.3248L34.0818 21.0945L34.2842 28.1975L33.6849 28.4005ZM37.1415 27.1828L36.9113 19.8222L37.5463 19.5724L37.7725 26.9643L37.1415 27.1828ZM40.5941 25.9652L40.3441 18.3196L41.0108 18.0542L41.2569 25.7349L40.5941 25.9652ZM44.0507 24.7475L43.7769 16.8131L44.4793 16.5361L44.7452 24.5055L44.0507 24.7475ZM47.5073 23.5298L47.2097 15.3106L47.9439 15.0179L48.2336 23.2761L47.5073 23.5298ZM50.96 22.3122L50.6425 13.808L51.4084 13.4958L51.7219 22.0429L50.96 22.3122ZM54.4165 21.0945L54.0713 12.3054L54.8729 11.9776L55.2103 20.8135L54.4165 21.0945ZM57.8731 19.8768L57.5041 10.799L58.3375 10.4594L58.6946 19.5841L57.8731 19.8768ZM61.3297 18.6592L60.9369 9.29641L61.802 8.94125L62.183 18.3547L61.3297 18.6592ZM64.7824 17.4415L64.3696 7.79384L65.2705 7.41917L65.6713 17.1254L64.7824 17.4415ZM68.239 16.2238L67.8024 6.28737L68.735 5.90099L69.1597 15.8921L68.239 16.2238ZM71.6956 15.0062L71.2352 4.7848L72.1996 4.38281L72.648 14.6627L71.6956 15.0062ZM75.1482 13.7885L74.668 3.28223L75.6641 2.86464L76.1324 13.4333L75.1482 13.7885ZM79.4937 13.246L79.327 2.86464L80.5255 3.47737L80.724 13.5465L79.4937 13.246ZM84.6012 14.7798L84.4465 4.68723L85.5656 5.23752L85.7362 15.0686L84.6012 14.7798ZM89.7087 16.3175L89.5619 6.50983L90.6056 6.99767L90.7525 16.5946L89.7087 16.3175ZM94.8162 17.8552L94.6813 8.33242L95.6496 8.75392L95.7687 18.1206L94.8162 17.8552ZM99.9237 19.389L99.7968 10.1589L100.69 10.5141L100.785 19.6427L99.9237 19.389ZM105.031 20.9267L104.916 11.9815L105.734 12.2742L105.801 21.1686L105.031 20.9267ZM110.135 22.4605L110.032 13.8041L110.774 14.0344L110.817 22.6946L110.135 22.4605Z" fill="#231F20"/>
<path d="M106.031 52.5782L99.6501 53.628L99.3286 31.0817L97.2134 30.6563L97.4356 53.9246L99.1143 53.7178L89.8954 55.2359V29.2591L87.3357 28.662V55.6574L79.1843 57L74.184 56.7346V28.9898L71.656 29.3996L71.8822 56.6136L66.6596 56.3365V30.6602L64.2467 31.0739L64.4412 56.2194L59.1313 55.9384V32.3306L56.8375 32.7482L57.0081 55.8253L51.603 55.5404V34.0049L49.4282 34.4264L49.5711 55.435L44.0787 55.1423V35.6752L42.019 36.1006L42.1341 55.0408L36.5503 54.7442V37.3495L34.6058 37.7749L34.701 54.6466L29.022 54.3461V39.0199L27.1965 39.4531L27.264 54.2524L21.4977 53.948V40.6903L19.7873 41.1274L19.8309 53.8622L13.9694 53.5499V42.3646L12.378 42.8017L12.3978 53.468L6.44107 53.1519V44.035L4.96874 44.476V53.0738L1.70264 52.9021L1.99234 42.0407L78.5771 21.1335L105.516 27.7916L106.031 52.5782Z" fill="#231F20"/>
<path d="M105.769 27.4014L110.663 24.8841L78.1206 16.4736L0.563477 41.5255L1.65879 41.7089L78.6246 20.5247L105.769 27.4014Z" fill="#231F20"/>
</g>
<defs>
<clipPath id="clip0_43_15">
<rect width="112" height="57" fill="white"/>
</clipPath>
</defs>
</svg>
