<svg width="133" height="80" viewBox="0 0 133 80" fill="none" xmlns="http://www.w3.org/2000/svg">
<g clip-path="url(#clip0_82_12)">
<path d="M126.68 12.45L132.53 0H0L5.85 12.45H14.65V18.64H7.31L9.49 50.32H18.12L24.91 58.7C24.91 58.84 24.86 58.97 24.86 59.11V64.64H10.17V79.05H122.34V64.64H107.65V59.11C107.65 59.05 107.63 58.99 107.63 58.93L114.46 50.32H123.02L125.2 18.64H117.99V12.45H126.66H126.68ZM73.52 64.62V59.23C73.52 57.17 74.91 55.45 76.75 55.02H78.53C80.38 55.45 81.76 57.17 81.76 59.23V64.62H73.51H73.52ZM50.76 59.24C50.76 57.18 52.15 55.46 54 55.03H55.78C57.63 55.46 59.01 57.18 59.01 59.24V64.63H50.76V59.24ZM62.14 59.24C62.14 57.18 63.53 55.46 65.37 55.03H67.15C69 55.46 70.39 57.18 70.39 59.24V64.63H62.14V59.24ZM39.38 59.24C39.38 57.18 40.77 55.46 42.61 55.03H44.39C46.24 55.46 47.62 57.18 47.62 59.24V64.63H39.37V59.24H39.38ZM84.9 64.62V59.23C84.9 57.17 86.29 55.45 88.13 55.02H89.91C91.76 55.45 93.15 57.17 93.15 59.23V64.62H84.9ZM39.2 12.45V18.64H29.58V12.45H39.2ZM80.58 18.63V12.44H90.2V18.63H80.58ZM77.45 18.63H67.83V12.44H77.45V18.63ZM64.7 18.63H55.08V12.44H64.7V18.63ZM51.95 18.63H42.33V12.44H51.95V18.63ZM93.33 18.63V12.44H102.95V18.63H93.33ZM17.78 12.45H26.45V18.64H17.78V12.45ZM28 59.24C28 57.18 29.39 55.46 31.24 55.03H33.02C34.87 55.46 36.25 57.18 36.25 59.24V64.63H28V59.24ZM96.28 64.62V59.23C96.28 57.17 97.67 55.45 99.51 55.02H101.29C103.14 55.45 104.52 57.17 104.52 59.23V64.62H96.27H96.28ZM114.88 18.63H106.08V12.44H114.88V18.63Z" fill="#231F20"/>
</g>
<defs>
<clipPath id="clip0_82_12">
<rect width="132.54" height="79.03" fill="white"/>
</clipPath>
</defs>
</svg>
