<svg width="168" height="102" viewBox="0 0 168 102" fill="none" xmlns="http://www.w3.org/2000/svg">
<g clip-path="url(#clip0_17_12)">
<path d="M167.496 102H0V86.4241L47.0121 86.4766C48.9746 87.2796 46.8877 90.2747 46.3542 91.5117C45.972 92.3985 45.3018 93.9453 44.8793 94.7315C43.5175 100.122 44.8613 95.0984 42.789 99.1962C42.5705 99.629 43.3584 101.166 43.8964 101.081C44.3323 101.011 44.7358 99.7721 44.9555 99.0541L122.93 99.0508L123.255 100.649C123.312 100.929 124.562 101.123 124.618 100.842C124.756 100.15 124.736 98.6291 124.518 98.1281C124.12 98.2578 121.473 91.9344 121.29 91.4703C120.696 89.9649 118.871 88.3723 120.501 86.4207L167.465 86.4375L167.496 102.001V102Z" fill="black"/>
<path d="M163.902 0.508881L161.794 15.0648L5.9569 15.0659L3.77026 0.508881" fill="black"/>
<path d="M159.707 63.4925L7.9104 63.4981L9.42793 52.228C9.86279 48.9936 8.49657 45.559 8.16258 42.2094L159.497 42.2049L158.064 52.2101L159.707 63.4914V63.4925ZM16.7163 46.2144H14.8536V59.6027H16.7163V46.2144ZM20.7209 46.2189H18.8895V59.6038H20.7209V46.2189ZM24.7321 46.2189H22.8649V59.5949H24.7321V46.2189ZM28.749 46.2189H26.8941V59.587H28.749V46.2189ZM32.7132 46.2189H30.9054V59.5636H32.7132V46.2189ZM36.7334 46.2144H34.9178V59.5747H36.7334V46.2144ZM40.7223 46.2189H38.8707V59.5837H40.7223V46.2189ZM44.7145 46.2189H42.8876V59.5915H44.7145V46.2189ZM48.7257 46.2189H46.8989V59.5949H48.7257V46.2189ZM50.8081 46.2177L50.8014 59.6061H52.7336L52.7404 46.2189H50.8081V46.2177ZM56.7382 46.2144H54.8194L54.8261 59.6072H56.7449L56.7382 46.2144ZM60.7237 57.8546V47.0017C60.7248 46.6852 60.0467 46.126 59.7822 46.1283C59.5177 46.1305 58.8632 46.6796 58.8643 47.0006L58.8822 58.1857C58.8833 58.9059 58.9629 59.5624 59.3003 59.53L60.4984 59.4182C60.7416 59.3958 60.7237 58.7807 60.7237 57.8558V57.8546ZM64.7091 46.2177L62.8386 46.2211L62.8587 59.6094L64.7293 59.6061L64.7091 46.2177ZM68.7596 46.2144H66.8453V59.6027H68.7596V46.2144ZM72.6801 46.2189H70.8566V59.5994H72.6801V46.2189ZM76.697 46.2144H74.8936V59.5904H76.697V46.2144ZM80.7161 46.2423H78.8971V59.587H80.7161V46.2423ZM84.7329 46.2144H82.8937V59.5826H84.7329V46.2144ZM86.8938 46.2222L86.8893 59.5714H88.6882L88.6926 46.2233H86.8938V46.2222ZM92.7129 46.2144H90.9297V59.5714H92.7129V46.2144ZM96.741 46.2189H94.941V59.5792H96.741V46.2189ZM100.753 46.2189H98.9455V59.587H100.753V46.2189ZM104.778 46.2189H102.947V59.5994H104.778V46.2189ZM108.786 46.2189H106.947V59.5994H108.786V46.2189ZM112.811 46.2189H110.975V59.5994H112.811V46.2189ZM116.765 46.2177H114.922L114.932 59.6038H116.775L116.765 46.2177ZM120.789 46.2065H118.966L118.973 59.6072H120.796L120.789 46.2065ZM124.775 46.2189H122.948V59.6072H124.775V46.2189ZM128.782 46.2166L126.934 46.22L126.954 59.6083L128.802 59.6049L128.782 46.2166ZM132.762 46.2177H130.958L130.965 59.5994H132.768L132.762 46.2177ZM136.736 46.2144H134.953V59.5949H136.736V46.2144ZM140.756 46.2144H138.981L138.985 59.596H140.761L140.756 46.2144ZM144.725 46.2189H142.997V59.5322H144.725V46.2189ZM148.725 46.2189H146.997V59.5524H148.725V46.2189ZM152.759 46.2177H150.956L150.963 59.5759H152.765L152.759 46.2177Z" fill="black"/>
<path d="M153.923 38.9784L14.2764 38.9694L12.843 40.8729L7.97431 38.2156L6.64282 27.054L160.998 27.0473L159.74 37.7705C158.974 38.597 157.22 39.6863 156.32 40.1012L154.978 40.7208C154.644 40.8752 154.293 39.9055 153.923 38.9772V38.9784ZM16.7164 29.9104H14.8536V36.4418H16.7164V29.9104ZM20.7209 29.9138H18.8896V36.4452H20.7209V29.9138ZM24.7288 29.9182H22.8661V36.4306H24.7288V29.9182ZM28.7524 29.9227H26.893V36.4273H28.7524V29.9227ZM32.7132 29.9261H30.9054V36.4105H32.7132V29.9261ZM36.7256 29.9328L34.9099 29.9361L34.92 36.4239L36.7357 36.4206L36.7256 29.9328ZM40.7223 29.9462H38.8708V36.4273H40.7223V29.9462ZM44.7145 29.9652H42.8876V36.4262H44.7145V29.9652ZM48.7258 29.9775H46.8989V36.4306H48.7258V29.9775ZM52.7348 29.9753H50.8026V36.4497H52.7348V29.9753ZM56.7393 29.9652H54.825V36.434H56.7393V29.9652ZM60.7293 29.9641L58.8587 29.9663L58.8666 36.443L60.7371 36.4407L60.7293 29.9641ZM62.8621 29.8992L62.8375 36.4385L64.7058 36.4452L64.7305 29.9059L62.8621 29.8992ZM68.7653 29.9026H66.8442V36.4508H68.7653V29.9026ZM72.679 29.9138L70.8499 29.916L70.8577 36.4284L72.6868 36.4262L72.679 29.9138ZM76.6936 29.9171L74.8914 29.9205L74.9026 36.4284L76.7048 36.4251L76.6936 29.9171ZM80.7161 29.9261H78.8971V36.4183H80.7161V29.9261ZM84.733 29.9261H82.8938V36.4183H84.733V29.9261ZM88.6893 29.9294H86.8927L86.8983 36.3993H88.6949L88.6893 29.9294ZM92.7129 29.9384H90.9297V36.4072H92.7129V29.9384ZM96.741 29.9417H94.941V36.406H96.741V29.9417ZM100.753 29.954H98.9455V36.4262H100.753V29.954ZM104.778 29.9574H102.947V36.4262H104.778V29.9574ZM108.786 29.9652H106.947V36.4295H108.786V29.9652ZM112.811 29.973H110.975V36.4374H112.811V29.973ZM116.763 29.9719L114.928 29.9753L114.938 36.4485L116.773 36.4452L116.763 29.9719ZM120.786 29.9674L118.965 29.9708L118.975 36.4396L120.796 36.4362L120.786 29.9674ZM122.949 29.9652L122.946 36.4452H124.774L124.777 29.9663H122.949V29.9652ZM126.958 29.9674L126.934 36.4418L128.778 36.4485L128.803 29.9741L126.958 29.9674ZM132.768 29.9138H130.965V36.4374H132.768V29.9138ZM136.734 29.9126L134.946 29.916L134.956 36.4318L136.744 36.4284L136.734 29.9126ZM140.755 29.9171L138.974 29.9193L138.981 36.4396L140.762 36.4374L140.755 29.9171ZM144.724 29.9138L142.986 29.916L142.993 36.3602L144.73 36.358L144.724 29.9138ZM148.725 29.9328L146.992 29.935L147.002 36.3915L148.735 36.3893L148.725 29.9328ZM152.761 29.9305H150.957V36.4116H152.761V29.9305Z" fill="black"/>
<path d="M90.0824 75.5667C90.0107 72.008 87.2132 68.6092 83.731 68.6852C80.3776 68.759 77.6014 72.131 77.5432 75.4359L77.3526 86.2183L74.219 86.433L74.1214 75.7893C74.0912 72.4643 71.6266 68.8306 68.0861 68.6919C64.2978 68.5443 61.627 72.2551 61.5788 75.8016L61.4365 86.2284C60.5623 86.4621 58.8744 86.4532 58.3106 86.0953L58.1011 75.5522C58.0338 72.1824 55.4022 68.7836 51.9558 68.6919C48.5498 68.6013 45.684 71.9957 45.6021 75.3285L45.378 84.477L42.3384 84.4949L42.0851 75.371C41.9977 72.216 39.4704 68.9346 36.2358 68.7031C32.6437 68.4459 29.6456 71.8547 29.5481 75.4124L29.315 83.9726C29.2948 84.7331 26.7966 84.8494 26.2385 84.2622L26.1107 75.815C26.0031 68.7478 18.0781 69.3708 13.4392 65.3658L154.492 65.368L143.966 70.714C142.259 71.5807 141.497 74.4573 141.48 76.2713L141.404 84.5072L138.284 84.4736L138.067 75.343C137.988 72.0102 135.115 68.5734 131.729 68.6863C128.042 68.8094 125.555 72.4274 125.492 75.8776L125.345 84.0341C125.331 84.8226 122.348 84.8058 122.322 83.9547L122.043 75.2536C121.934 71.8648 119.002 68.5353 115.592 68.6942C112.003 68.8619 109.547 72.4441 109.508 75.7926L109.382 86.4409L106.216 86.2105L106.052 75.4683C106.002 72.1601 103.296 68.7288 99.9105 68.6897C96.2075 68.6461 93.5355 72.2988 93.503 75.8273L93.4078 86.1356C92.8026 86.3201 91.3052 86.4073 90.3021 86.3671L90.0847 75.5656L90.0824 75.5667Z" fill="black"/>
<path d="M121.59 95.4563H46.1089V97.7434H121.59V95.4563Z" fill="black"/>
<path d="M120.029 91.7879H47.6936V94.1813H120.029V91.7879Z" fill="black"/>
<path d="M49.1775 88.2784V90.5812H118.529V88.2784H49.1775Z" fill="black"/>
<path d="M151.403 25.1192C147.348 25.4301 143.33 25.287 139.137 25.2668L139.129 16.8665L159.848 16.9571C157.04 20.0092 154.522 22.5312 151.404 25.1192H151.403Z" fill="black"/>
<path d="M28.6236 25.2869H16.5159C13.51 22.756 10.7988 20.1524 7.69873 16.9705L28.5284 16.8553L28.6248 25.2881L28.6236 25.2869Z" fill="black"/>
<path d="M76.8675 16.8934H75.0002V25.2813H76.8675V16.8934Z" fill="black"/>
<path d="M44.9094 16.9057H43.05V25.2735H44.9094V16.9057Z" fill="black"/>
<path d="M60.9142 16.9012H59.0269V25.2724H60.9142V16.9012Z" fill="black"/>
<path d="M92.6345 16.9012H90.7751V25.2814H92.6345V16.9012Z" fill="black"/>
<path d="M106.714 16.894L106.708 25.2775L108.599 25.2788L108.605 16.8953L106.714 16.894Z" fill="black"/>
<path d="M124.608 16.9135H122.753V25.2691H124.608V16.9135Z" fill="black"/>
</g>
<defs>
<clipPath id="clip0_17_12">
<rect width="168" height="102" fill="white"/>
</clipPath>
</defs>
</svg>
