<svg width="30" height="30" viewBox="0 0 30 30" fill="none" xmlns="http://www.w3.org/2000/svg">
<g clip-path="url(#clip0_85_42)">
<path d="M15 0C6.72 0 0 6.72 0 15C0 23.28 6.72 30 15 30C23.28 30 30 23.29 30 15C30 6.71 23.29 0 15 0ZM15.24 17.43H13.2V22.53H9.59V7.47H15.24C19.21 7.47 22.18 8.45 22.18 12.46C22.18 16.47 19.21 17.43 15.24 17.43Z" fill="#231F20"/>
<path d="M18.37 12.4599C18.37 14.0699 17.03 14.2599 15.35 14.2599H13.2V10.6499H15.35C17.03 10.6499 18.37 10.8499 18.37 12.4599Z" fill="#231F20"/>
</g>
<defs>
<clipPath id="clip0_85_42">
<rect width="30" height="30" fill="white"/>
</clipPath>
</defs>
</svg>
