<svg width="49" height="26" viewBox="0 0 49 26" fill="none" xmlns="http://www.w3.org/2000/svg">
<g clip-path="url(#clip0_85_82)">
<path d="M24.6001 0.120117H23.8501V26.0001H24.6001V0.120117Z" fill="#010101"/>
<path d="M10.0601 0.120117H9.31006V26.0001H10.0601V0.120117Z" fill="#010101"/>
<path d="M42.18 5.94988C43.24 5.94988 44.09 5.08988 44.09 4.03988C44.09 2.98988 43.23 2.12988 42.18 2.12988C41.13 2.12988 40.27 2.98988 40.27 4.03988C40.27 5.08988 41.13 5.94988 42.18 5.94988Z" fill="#010101"/>
<path d="M39.71 13.65C39.37 13.25 38.98 12.89 38.55 12.58L41.76 8.11004L33.89 3.04004L30.45 8.50004L32.51 9.79004L34.64 6.41004L38.29 8.76004L36.35 11.46C35.69 11.26 34.99 11.15 34.26 11.15C30.28 11.15 27.04 14.39 27.04 18.37C27.04 22.35 30.28 25.59 34.26 25.59C38.24 25.59 41.48 22.35 41.48 18.37C41.48 17.56 41.35 16.79 41.1 16.06H44.52L41.66 20.99L43.76 22.21L48.75 13.63H39.7L39.71 13.65ZM34.27 23.17C31.63 23.17 29.48 21.02 29.48 18.38C29.48 15.74 31.63 13.59 34.27 13.59C36.91 13.59 39.06 15.74 39.06 18.38C39.06 21.02 36.91 23.17 34.27 23.17Z" fill="#010101"/>
<path d="M3.37 4.24C4.54 4.24 5.49 3.29 5.49 2.12C5.49 0.95 4.54 0 3.37 0C2.2 0 1.25 0.95 1.25 2.12C1.25 3.29 2.2 4.24 3.37 4.24Z" fill="#010101"/>
<path d="M17.0099 4.24C18.1799 4.24 19.1299 3.29 19.1299 2.12C19.1299 0.95 18.1799 0 17.0099 0C15.8399 0 14.8899 0.95 14.8899 2.12C14.8899 3.29 15.8399 4.24 17.0099 4.24Z" fill="#010101"/>
<path d="M0 17.2601H2.15V25.9701H4.58V17.2601H6.73V6.58008H0V17.2601Z" fill="#010101"/>
<path d="M13.9799 6.47998L12.6299 19.1H15.7899V25.86H18.2199V19.1H21.2699L19.9199 6.47998H13.9799Z" fill="#010101"/>
</g>
<defs>
<clipPath id="clip0_85_82">
<rect width="48.76" height="26" fill="white"/>
</clipPath>
</defs>
</svg>
